<?xml version="1.0" encoding="UTF-8" standalone="no"?>
<!DOCTYPE svg PUBLIC "-//W3C//DTD SVG 1.1//EN" "http://www.w3.org/Graphics/SVG/1.1/DTD/svg11.dtd">
<svg width="100%" height="100%" viewBox="0 0 553 642" xmlns="http://www.w3.org/2000/svg" style="fill-rule:evenodd;clip-rule:evenodd;stroke-linejoin:round;stroke-miterlimit:2;">
    <g transform="matrix(1,0,0,1,-1561.37,-248.777)">
        <g transform="matrix(5.53915,0,0,5.53915,-8945.17,-5533.09)">
            <path d="M1927.22,1144.58C1927.23,1144.59 1927.25,1144.59 1927.26,1144.59C1960.17,1130.25 1979.65,1090.08 1976.74,1092.57C1959.23,1125.8 1926.84,1139.92 1926.84,1139.92C1925.55,1119.78 1930.81,1118.3 1930.81,1118.3L1936.87,1127.76L1936.49,1116.79C1957.67,1106.77 1963.15,1082.94 1963.15,1082.94L1970.53,1086.34L1969.02,1076.88L1986.42,1043.82L1996.44,1074.24C1995.68,1084.45 1992.66,1106.77 1992.66,1106.77L1983.77,1111.31L1992.06,1109.62C1992.43,1113.4 1989.25,1127.76 1989.25,1127.76L1975.26,1131.92L1987.17,1135.13C1975.26,1145.91 1953.5,1153.52 1953.5,1153.52L1947.62,1150.27L1947.9,1153.49C1936.38,1153.78 1925.74,1149.94 1925.74,1149.94C1925.74,1149.94 1923.97,1148.76 1913.92,1156.44C1903.87,1164.12 1896.78,1155.85 1896.78,1155.85L1927.22,1144.59C1927.22,1144.59 1927.22,1144.58 1927.22,1144.58Z" style="fill:currentColor;"/>
        </g>
    </g>
</svg>
