<?xml version="1.0" encoding="UTF-8" standalone="no"?>
<!DOCTYPE svg PUBLIC "-//W3C//DTD SVG 1.1//EN" "http://www.w3.org/Graphics/SVG/1.1/DTD/svg11.dtd">
<svg width="100%" height="100%" viewBox="0 0 408 642" xmlns="http://www.w3.org/2000/svg" style="fill-rule:evenodd;clip-rule:evenodd;stroke-linejoin:round;stroke-miterlimit:2;">
    <g transform="matrix(1,0,0,1,-945.868,-248.777)">
        <g transform="matrix(5.3936,0,0,5.3936,-2518.77,-5416.28)">
            <path d="M709.352,1121.7C712.684,1145.93 687.69,1165.53 688.233,1165.09C684.366,1165.2 642.172,1138.29 663.491,1088.08C663.491,1088.08 631.937,1132.5 680.148,1169.01C678.031,1169.34 676.034,1169.42 674.256,1169.28C654.745,1167.81 635.218,1140.52 644.939,1106.59C650.931,1085.67 663.307,1069.28 675.473,1060.42C686.566,1052.34 712.423,1046.44 717.936,1053.43C670.224,1064.71 681.359,1089.05 687.023,1093.56C701.497,1105.08 707.74,1113.2 709.352,1121.7Z" style="fill:currentColor;"/>
        </g>
    </g>
</svg>